<?xml version="1.0" standalone="no"?>
<!DOCTYPE svg PUBLIC "-//W3C//DTD SVG 1.1//EN"
  "http://www.w3.org/Graphics/SVG/1.1/DTD/svg11.dtd">
<svg version="1.1" xmlns="http://www.w3.org/2000/svg" xmlns:xlink="http://www.w3.org/1999/xlink" width="1792" height="1063" viewBox="-992 -32 1792 1063" id="ccdiagram"><filter id="grayscale"><feColorMatrix type="matrix" values="0.3333 0.3333 0.3333 0 0 0.3333 0.3333 0.3333 0 0 0.3333 0.3333 0.3333 0 0 0 0 0 1 0"></feColorMatrix></filter><defs><style type="text/css">@import url('https://fonts.googleapis.com/css?family=Open+Sans:400,700|Inconsolata:400');</style></defs><g><g style="pointer-events: none;"><g><pattern id="gridPatternMinor" x="0" y="37" width="128" height="74" patternUnits="userSpaceOnUse"><path d="M 0 0 L 128 74" stroke="#eee" stroke-width="1"></path><path d="M 128 0 L 0 74" stroke="#eee" stroke-width="1"></path></pattern><polygon points="0 0, 768 444, -192 999, -960 555" fill="url(#gridPatternMinor)"></polygon></g><polygon points="-960 555, -960 565, -192 1009, -192 999" stroke-linejoin="round" stroke="#54626f" stroke-width="1" fill="#f9f9f9"></polygon><polygon points="-192 1009, 768 454, 768 444, -192 999" stroke-linejoin="round" stroke="#54626f" stroke-width="1" fill="#e2e2e2"></polygon></g><g pointer-events="auto"><g opacity="1"><g><g><polygon points="0 0, 768 444, 512 592, -256 148" fill="#4286c5" stroke-width="0" stroke="#818181"></polygon></g></g></g></g><g style="pointer-events: none;"><g><pattern id="gridPatternMajor" x="0" y="37" width="128" height="74" patternUnits="userSpaceOnUse"><path d="M 64 0 L 128 37 64 74 0 37 z" stroke="#54626f" stroke-width="1" fill="none"></path></pattern><polygon points="0 0, 768 444, -192 999, -960 555" fill="url(#gridPatternMajor)"></polygon></g></g><g pointer-events="auto"></g><g></g><g pointer-events="auto"></g><g></g><g pointer-events="auto"></g><g pointer-events="none"></g><g pointer-events="auto"><g><g cursor="cell"><line x1="-400" y1="638" x2="-234" y2="542" stroke="red" stroke-width="8" opacity="0"></line><line x1="-400" y1="638" x2="-234" y2="542" stroke="#000000" stroke-width="2" stroke-linecap="round"></line><polygon points="-224 537, -250 542, -236 544, -233 551, -224 537" stroke-linejoin="round" fill="#000000" stroke="#000000" stroke-width="1"></polygon></g></g><g><g cursor="cell"><line x1="-302" y1="304" x2="-154" y2="218" stroke="red" stroke-width="8" opacity="0"></line><line x1="-302" y1="304" x2="-154" y2="218" stroke="#000000" stroke-width="2" stroke-linecap="round"></line><polygon points="-144 213, -170 218, -156 220, -153 228, -144 213" stroke-linejoin="round" fill="#000000" stroke="#000000" stroke-width="1"></polygon></g></g><g><g cursor="cell"><line x1="-160" y1="777" x2="-122" y2="755" stroke="red" stroke-width="8" opacity="0"></line><line x1="-160" y1="777" x2="-122" y2="755" stroke="#000000" stroke-width="2" stroke-linecap="round"></line><polygon points="-112 749, -138 755, -124 756, -121 764, -112 749" stroke-linejoin="round" fill="#000000" stroke="#000000" stroke-width="1"></polygon></g></g><g><g cursor="cell"><line x1="96" y1="167" x2="228" y2="159" stroke="red" stroke-width="8" opacity="0"></line><line x1="96" y1="167" x2="228" y2="159" stroke="#000000" stroke-width="2" stroke-linecap="round"></line><polygon points="242 158, 216 153, 224 159, 219 166, 242 158" stroke-linejoin="round" fill="#000000" stroke="#000000" stroke-width="1"></polygon></g></g><g><g cursor="cell"><line x1="160" y1="352" x2="399" y2="342" stroke="red" stroke-width="8" opacity="0"></line><line x1="160" y1="352" x2="399" y2="342" stroke="#000000" stroke-width="2" stroke-linecap="round"></line></g></g><g><g cursor="cell"><line x1="96" y1="167" x2="64" y2="296" stroke="red" stroke-width="8" opacity="0"></line><line x1="96" y1="167" x2="64" y2="296" stroke="#000000" stroke-width="2" stroke-linecap="round"></line></g></g><g><g cursor="cell"><line x1="-640" y1="500" x2="-602" y2="477" stroke="red" stroke-width="8" opacity="0"></line><line x1="-640" y1="500" x2="-602" y2="477" stroke="#000000" stroke-width="2" stroke-linecap="round"></line><polygon points="-592 472, -618 477, -604 479, -601 487, -592 472" stroke-linejoin="round" fill="#000000" stroke="#000000" stroke-width="1"></polygon></g></g><g><g cursor="cell"><line x1="96" y1="167" x2="389" y2="336" stroke="red" stroke-width="8" opacity="0"></line><line x1="96" y1="167" x2="389" y2="336" stroke="#000000" stroke-width="2" stroke-linecap="round"></line><polygon points="399 342, 389 327, 386 334, 373 336, 399 342" stroke-linejoin="round" fill="#000000" stroke="#000000" stroke-width="1"></polygon></g></g><g><g cursor="cell"><line x1="-32" y1="703" x2="6" y2="681" stroke="red" stroke-width="8" opacity="0"></line><line x1="-32" y1="703" x2="6" y2="681" stroke="#000000" stroke-width="2" stroke-linecap="round"></line><polygon points="16 675, -10 681, 4 682, 7 690, 16 675" stroke-linejoin="round" fill="#000000" stroke="#000000" stroke-width="1"></polygon></g></g><g><g cursor="cell"><line x1="-272" y1="842" x2="-210" y2="806" stroke="red" stroke-width="8" opacity="0"></line><line x1="-272" y1="842" x2="-210" y2="806" stroke="#000000" stroke-width="2" stroke-linecap="round"></line><polygon points="-200 800, -226 806, -213 808, -210 815, -200 800" stroke-linejoin="round" fill="#000000" stroke="#000000" stroke-width="1"></polygon></g></g><g><g cursor="cell"><line x1="-688" y1="657" x2="-778" y2="605" stroke="red" stroke-width="8" opacity="0"></line><line x1="-688" y1="657" x2="-778" y2="605" stroke="#000000" stroke-width="2" stroke-linecap="round"></line><polygon points="-787 599, -778 614, -775 607, -762 605, -787 599" stroke-linejoin="round" fill="#000000" stroke="#000000" stroke-width="1"></polygon></g></g><g><g cursor="cell"><line x1="399" y1="342" x2="362" y2="234" stroke="red" stroke-width="8" opacity="0"></line><line x1="399" y1="342" x2="362" y2="234" stroke="#000000" stroke-width="2" stroke-linecap="round"></line><polygon points="360 226, 353 242, 363 236, 376 239, 360 226" stroke-linejoin="round" fill="#000000" stroke="#000000" stroke-width="1"></polygon></g></g><g><g cursor="cell"><line x1="-61" y1="461" x2="102" y2="366" stroke="red" stroke-width="8" opacity="0"></line><line x1="-61" y1="461" x2="102" y2="366" stroke="#000000" stroke-width="2" stroke-linecap="round"></line><polygon points="112 361, 86 366, 100 368, 103 376, 112 361" stroke-linejoin="round" fill="#000000" stroke="#000000" stroke-width="1"></polygon></g></g><g><g cursor="cell"><line x1="-256" y1="851" x2="-272" y2="842" stroke="red" stroke-width="8" opacity="0"></line><line x1="-256" y1="851" x2="-272" y2="842" stroke="#000000" stroke-width="2" stroke-linecap="round"></line></g></g><g><g cursor="cell"><line x1="-512" y1="426" x2="-461" y2="396" stroke="red" stroke-width="8" opacity="0"></line><line x1="-512" y1="426" x2="-461" y2="396" stroke="#000000" stroke-width="2" stroke-linecap="round"></line><polygon points="-451 390, -477 396, -464 398, -460 405, -451 390" stroke-linejoin="round" fill="#000000" stroke="#000000" stroke-width="1"></polygon></g></g><g><g cursor="cell"><line x1="-474" y1="318" x2="-512" y2="296" stroke="red" stroke-width="8" opacity="0"></line><line x1="-474" y1="318" x2="-512" y2="296" stroke="#000000" stroke-width="2" stroke-linecap="round"></line></g></g><g><g cursor="cell"><line x1="163" y1="590" x2="326" y2="496" stroke="red" stroke-width="8" opacity="0"></line><line x1="163" y1="590" x2="326" y2="496" stroke="#000000" stroke-width="2" stroke-linecap="round"></line><polygon points="336 490, 310 496, 324 497, 327 505, 336 490" stroke-linejoin="round" fill="#000000" stroke="#000000" stroke-width="1"></polygon></g></g><g><g cursor="cell"><line x1="-512" y1="296" x2="-477" y2="276" stroke="red" stroke-width="8" opacity="0"></line><line x1="-512" y1="296" x2="-477" y2="276" stroke="#000000" stroke-width="2" stroke-linecap="round"></line></g></g><g><g cursor="cell"><line x1="-768" y1="574" x2="-690" y2="528" stroke="red" stroke-width="8" opacity="0"></line><line x1="-768" y1="574" x2="-690" y2="528" stroke="#000000" stroke-width="2" stroke-linecap="round"></line><polygon points="-680 523, -706 528, -693 530, -690 538, -680 523" stroke-linejoin="round" fill="#000000" stroke="#000000" stroke-width="1"></polygon></g></g></g><g pointer-events="auto"><g opacity="1"><g id="31ac6975-58c4-4841-bff5-8173f844ada7" transform="translate(0 0)"><svg x="242" y="122" height="108.05" width="123" viewBox="0 0 32.544 28.588"><path d="M10.115 6.02v14.218l7.873-4.318V1.474z" fill="#090909" fill-rule="evenodd" stroke="#a2a2a2" stroke-width=".268"></path><path d="M.265 2.228l9.85 3.791v14.219l-9.85-8.531z" fill="#232323" fill-rule="evenodd" stroke="#a2a2a2" stroke-width=".265"></path><path d="M10.115 6.02l7.873-4.546L3.548.332.265 2.228z" fill="#3c3c3c" fill-rule="evenodd" stroke="#a2a2a2" stroke-width=".265"></path><path d="M.265 11.707l9.85 8.53 7.873-4.317V1.474L3.392.271.265 2.076z" fill="none" stroke="#000000" stroke-width=".529"></path><path d="M22.429 3.65L14.22 8.39l14.828 10.397 3.231-1.866z" fill="#3c3c3c" fill-rule="evenodd" stroke="#a2a2a2" stroke-width=".268"></path><path d="M14.22 8.39V22.61l14.777 5.687.051-9.509z" fill="#232323" fill-rule="evenodd" stroke="#a2a2a2" stroke-width=".265"></path><path d="M29.048 18.787l3.231-1.866V26.4l-3.282 1.897z" fill="#090909" fill-rule="evenodd" stroke="#a2a2a2" stroke-width=".265"></path><path d="M22.429 3.65L14.22 8.39V22.61l14.777 5.687 3.282-1.897v-9.478z" fill="none" stroke="#000000" stroke-width=".529"></path><path d="M21.09 20.43q.163.375.048.64t-.44.265q-.326 0-.671-.265-.346-.265-.509-.64-.162-.374-.047-.639t.44-.265q.326 0 .671.265.346.265.509.64zm1.573-1.808q.08.184.022.318-.059.134-.218.134-.16 0-.335-.134-.176-.135-.255-.318-.082-.187-.024-.32.058-.132.22-.132.163 0 .336.132.173.133.254.32zm1.573 3.617q.08.184.021.318-.058.134-.218.134t-.335-.134q-.175-.135-.255-.318-.081-.187-.023-.32.057-.132.22-.132t.335.132q.173.133.255.32zm-1.826-1.487l-.284-.654q-.016-.035-.052-.068-.036-.034-.065-.038l-.513-.084q-.088-.124-.215-.269.03-.17.1-.406.006-.035-.01-.07-.018-.043-.05-.068-.117-.106-.39-.316-.275-.21-.333-.21-.034 0-.054.025l-.215.317q-.143-.067-.284-.11-.2-.38-.309-.547-.058-.085-.129-.085h-.571q-.034 0-.05.027-.016.026-.004.062l.164.54q-.089.036-.182.11l-.5-.315q-.032-.024-.071-.024-.034 0-.053.028-.238.47-.196.565.014.032.05.067.053.05.208.187.155.138.238.216-.003.155.018.29l-.43.084q-.029.004-.038.034-.008.03.008.069l.285.653q.015.036.051.069.036.033.065.037l.513.085q.088.124.215.268-.03.17-.1.407-.005.038.01.07.018.043.052.07.113.107.388.315.275.208.333.209.034 0 .054-.025l.215-.318q.132.064.286.113.2.382.307.544.058.085.129.085h.571q.034 0 .05-.027.016-.026.004-.062l-.164-.54q.089-.035.183-.11l.499.315q.035.024.072.024.033 0 .052-.028.238-.47.196-.565-.014-.032-.05-.067-.062-.057-.212-.19-.15-.135-.23-.213-.004-.169-.022-.29l.431-.08q.028-.007.036-.038.008-.03-.008-.068zm1.147-1.883l-.215-.494q-.025-.057-.505-.11-.079-.095-.172-.183-.017-.4-.056-.488-.006-.014-.023-.024-.483-.251-.49-.251-.024 0-.069.166-.044.166-.055.24-.064-.007-.095-.007t-.09.007q-.075-.074-.264-.24-.188-.166-.213-.166-.006 0-.272.25-.008.011-.002.025.039.088.369.488-.017.088-.012.183-.435.053-.41.11l.215.494q.024.057.505.11.084.102.172.184.017.399.055.487.006.014.023.025l.138.07.234.12q.11.057.117.057.024 0 .07-.164.045-.164.056-.239.064.007.095.007.03 0 .089-.007.266.251.455.396l.021.007q.012 0 .273-.247.008-.01.002-.025-.038-.088-.368-.487.017-.082.012-.184.435-.053.41-.11zm1.572 3.617l-.215-.494q-.024-.057-.505-.11-.078-.095-.172-.184-.017-.399-.055-.487-.006-.014-.023-.025-.484-.25-.49-.25-.025 0-.069.165-.044.166-.055.24-.065-.006-.096-.006-.03 0-.089.007-.075-.075-.264-.24-.189-.166-.213-.166-.006 0-.272.25-.008.01-.002.025.038.088.369.487-.017.088-.013.184-.434.053-.41.11l.215.494q.025.057.505.11.085.102.173.183.016.4.055.488.006.014.023.024l.138.07.233.121q.111.057.117.057.025 0 .07-.165.045-.164.056-.238.065.007.095.007.031 0 .09-.007.265.25.454.396l.022.007q.012 0 .273-.248.008-.01.002-.024-.038-.088-.369-.488.017-.08.013-.183.434-.053.41-.11z" fill="#f4b934"></path></svg></g></g><g opacity="1"><g id="b18269a3-dedd-4f05-a384-0613f3a70052" transform="translate(0 0)"><svg x="0" y="47" height="138.272" width="127.987" viewBox="0 0 33.863 36.584"><path d="M.132 12.283v14.422l16.653 9.615V21.898l-4.163-7.212L4.296 9.88z" fill="#d2d2d4"></path><path d="M20.984 14.686l8.325-4.807 4.163 2.404v14.422L16.82 36.32V21.898z" fill="#b8b8bb"></path><path d="M4.296 9.88l8.326 4.806h8.326l8.326-4.806V5.07L20.948.265h-8.326L4.296 5.07zM12.853 14.686h8.326l-4.164 7.212z" fill="#ececed"></path><path d="M4.357 4.889v4.808L.193 12.1zM29.274 9.696V4.89l4.162 7.21z" fill="#d2d2d4"></path><path d="M12.706 14.686h8.327l-4.164 7.212z" fill="none" stroke="#83838a" stroke-width=".271"></path><path d="M.132 12.283v14.422l16.653 9.615V21.898l-4.163-7.212L4.296 9.88zM21.05 14.68l8.326-4.806 4.163 2.403V26.7l-16.652 9.615V21.892z" fill="none" stroke="#83838a" stroke-width=".265"></path><path d="M4.296 9.88l8.326 4.806h8.326l8.326-4.806V5.07L20.948.265h-8.326L4.296 5.07z" fill="none" stroke="#83838a" stroke-width=".265"></path><path d="M.293 26.705V12.283L4.457 5.07 12.783.265h8.327l8.326 4.806 4.163 7.212v14.422L16.946 36.32z" fill="none" stroke="#000000" stroke-width=".529"></path><g transform="matrix(.12245 0 0 .0707 332.442 -7.06)"><circle cx="-2577.924" cy="205.604" fill="none" r="58.627" stroke="#83838a" stroke-width="12"></circle><circle cx="-2577.924" cy="205.604" fill="none" r="17.743" stroke="#4286c5" stroke-width="12"></circle><circle cx="-2577.924" cy="205.604" fill="none" r="36.88" stroke="#4286c5" stroke-width="12"></circle><g stroke-linecap="round"><path d="M-2577.643 255.025v25.718" fill="#612828" fill-rule="evenodd" stroke="#4286c5" stroke-width="36"></path><path d="M-2577.643 238.713v42.124" fill="none" stroke="#ececed" stroke-width="12"></path></g></g><path d="M7.409 27.947l-2.275-9.87-.058-.034q.123 2.682.123 3.555v5.074l-1.79-1.034V14.73l2.727 1.574 2.235 9.633.04.022 2.37-6.973 2.728 1.575v10.908l-1.868-1.078v-5.163q0-.366.007-.84.012-.47.09-2.484l-.058-.034-2.436 7.137z" fill="#83838a" font-family="Open Sans" font-size="66.667" style="line-height: 25px;"></path></svg></g></g><g opacity="1"><g id="edfd6bb8-f969-4784-8249-3951d4772013" transform="translate(0 0)"><svg x="399" y="277" height="120.799" width="97" viewBox="0 0 25.665 31.962"><path d="M.269 5.1v21.761l8.375 4.836V9.937z" fill="#d2d2d4" fill-rule="evenodd"></path><path d="M4.457 2.682v4.836l4.187 2.418h8.376l4.188-2.418V2.682L17.02.265H8.644z" fill="none" stroke="#000" stroke-width=".269"></path><path d="M8.644 9.936h8.376v21.76H8.644z" fill="#d2d2d4" fill-rule="evenodd"></path><path d="M.269 5.1v4.836l8.375 4.836h8.376l8.376-4.836V5.1L17.02.265H8.644z" fill="#ececed" fill-rule="evenodd"></path><path d="M17.02 9.936L25.396 5.1v21.761l-8.376 4.836z" fill="#b8b8bb" fill-rule="evenodd"></path><path d="M8.644 14.772V9.936h8.376v4.836z" fill="none" stroke="#83838a" stroke-width=".269"></path><g fill="none" stroke="#83838a"><path d="M.269 5.1l8.375 4.836h8.376L25.396 5.1M8.644 9.936v21.76M17.02 9.936v21.76" stroke-width=".26865"></path></g><path d="M.269 9.936l4.188-2.418V2.682L.269 5.1z" fill="#ececed" fill-rule="evenodd" stroke="#83838a" stroke-width=".269"></path><path d="M8.644 14.772V9.936L4.457 7.518.269 9.936z" fill="none" stroke="#83838a" stroke-width=".269"></path><path d="M21.208 7.518V2.682L25.396 5.1v4.836" fill="#d2d2d4" fill-rule="evenodd" stroke="#83838a" stroke-width=".269"></path><path d="M25.396 9.936l-4.188-2.418-4.188 2.418v4.836z" fill="#d2d2d4" fill-rule="evenodd" stroke="#83838a" stroke-width=".269"></path><path d="M.269 5.1v21.761l8.375 4.836h8.376l8.376-4.836V5.101L17.02.264H8.644z" fill="none" stroke="#000000" stroke-width=".529"></path><g transform="scale(.29127 .16816) rotate(45 -326.555 -2684.243)"><circle cx="1484" cy="-2012" fill="#4286c5" r="17.6" transform="matrix(1.25 0 0 1.25 0 1488.188)"></circle><path d="M1847.206-1009.63h15.588l-7.794-4.5zM1847.206-1017.135h15.588v-4.5h-15.588zM1847.206-1024.563h15.588v-4.5h-15.588zM1847.206-1031.99h15.588v-4.5h-15.588zM1847.206-1039.418h15.588l-7.794-4.5z" fill="#ffffff" fill-rule="evenodd"></path></g></svg></g></g><g opacity="1"><g id="05da6b96-4d4a-4820-b0e3-96b276dd5947" transform="translate(0 0)"><svg x="64" y="232" height="138.272" width="127.987" viewBox="0 0 33.863 36.584"><path d="M.132 12.283v14.422l16.653 9.615V21.898l-4.163-7.212L4.296 9.88z" fill="#d2d2d4"></path><path d="M20.984 14.686l8.325-4.807 4.163 2.404v14.422L16.82 36.32V21.898z" fill="#b8b8bb"></path><path d="M4.296 9.88l8.326 4.806h8.326l8.326-4.806V5.07L20.948.265h-8.326L4.296 5.07zM12.853 14.686h8.326l-4.164 7.212z" fill="#ececed"></path><path d="M4.357 4.889v4.808L.193 12.1zM29.274 9.696V4.89l4.162 7.21z" fill="#d2d2d4"></path><path d="M12.706 14.686h8.327l-4.164 7.212z" fill="none" stroke="#83838a" stroke-width=".271"></path><path d="M.132 12.283v14.422l16.653 9.615V21.898l-4.163-7.212L4.296 9.88zM21.05 14.68l8.326-4.806 4.163 2.403V26.7l-16.652 9.615V21.892z" fill="none" stroke="#83838a" stroke-width=".265"></path><path d="M4.296 9.88l8.326 4.806h8.326l8.326-4.806V5.07L20.948.265h-8.326L4.296 5.07z" fill="none" stroke="#83838a" stroke-width=".265"></path><path d="M.293 26.705V12.283L4.457 5.07 12.783.265h8.327l8.326 4.806 4.163 7.212v14.422L16.946 36.32z" fill="none" stroke="#000000" stroke-width=".529"></path><g transform="matrix(.12245 0 0 .0707 332.442 -7.06)"><circle cx="-2577.924" cy="205.604" fill="none" r="58.627" stroke="#83838a" stroke-width="12"></circle><circle cx="-2577.924" cy="205.604" fill="none" r="17.743" stroke="#4286c5" stroke-width="12"></circle><circle cx="-2577.924" cy="205.604" fill="none" r="36.88" stroke="#4286c5" stroke-width="12"></circle><g stroke-linecap="round"><path d="M-2577.643 255.025v25.718" fill="#612828" fill-rule="evenodd" stroke="#4286c5" stroke-width="36"></path><path d="M-2577.643 238.713v42.124" fill="none" stroke="#ececed" stroke-width="12"></path></g></g></svg></g></g><g opacity="1"><g id="880b59f5-fd7c-411b-acb0-984a1d6e0c37" transform="translate(0 0)"><svg x="-515" y="166" height="115.695" width="100.625" viewBox="0 0 26.624 30.611"><path d="M13.312.306v15l12.99-7.5z" fill="#f5b720" fill-rule="evenodd"></path><path d="M.322 7.806l12.99 7.5v-15z" fill="#a77908" fill-rule="evenodd"></path><path d="M13.312.306v15" fill="none" stroke="#fce6b2" stroke-width=".265"></path><path d="M13.312 15.306l12.99-7.5-6.495 18.75-6.495 3.75z" fill="#a77908" fill-rule="evenodd"></path><path d="M.322 7.806l12.99 7.5v15l-6.495-3.75z" fill="#d89c0a" fill-rule="evenodd"></path><path d="M.322 7.806l12.99 7.5 12.99-7.5-12.99 7.5v15" fill="none" stroke="#fef6e3" stroke-width=".265"></path><path d="M13.312.306l-12.99 7.5 6.495 18.75 6.495 3.75 6.495-3.75 6.495-18.75z" fill="none" stroke="#000000" stroke-width=".529"></path></svg></g></g><g opacity="1"><g id="ec0db53f-04e1-4fdc-875a-d3fb99188163" transform="translate(0 0)"><svg x="-512" y="259" height="161.969" width="226" viewBox="0 0 59.796 42.854"><path d="M2647.212-1556.832l-31.177 18-31.177-18v-36l31.177-18 31.177 18z" fill="#d2d2d4" stroke="#83838a" stroke-width="1.723" transform="matrix(0 -.16643 -.14368 -.08322 -187.562 311.974)"></path><path d="M2.884 20.131l5.278 3.052L41.289 3.94 36.116.944z" fill="#ececed" fill-rule="evenodd" stroke="#83838a" stroke-width=".26446552"></path><path d="M2647.212-1556.832l-31.177 18-31.177-18v-36l31.177-18 31.177 18z" fill="#d2d2d4" stroke="#83838a" stroke-width="1.711" transform="matrix(0 -.16643 -.14368 -.08322 -212.93 330.522)"></path><path d="M2647.212-1556.832l-31.177 18-31.177-18v-36l31.177-18 31.177 18z" fill="#d2d2d4" stroke="#83838a" stroke-width="1.711" transform="matrix(0 -.16643 -.14368 -.08322 -220.794 331.16)"></path><path d="M2647.212-1556.832l-31.177 18-31.177-18v-36l31.177-18 31.177 18z" fill="#d2d2d4" stroke="#83838a" stroke-width="1.723" transform="matrix(0 -.16643 -.14368 -.08322 -179.697 311.335)"></path><path d="M2647.212-1556.832l-31.177 18-31.177-18v-36l31.177-18 31.177 18z" fill="#d2d2d4" stroke="#83838a" stroke-width="1.723" transform="matrix(0 -.16643 -.14368 -.08322 -179.803 321.656)"></path><path d="M2647.212-1556.832l-31.177 18-31.177-18v-36l31.177-18 31.177 18z" fill="#d2d2d4" stroke="#83838a" stroke-width="1.723" transform="matrix(0 -.16643 -.14368 -.08322 -171.939 321.018)"></path><path d="M23.614 32.096L56.846 12.91M26.265 38.858L59.498 19.67M23.679 42.549l33.232-19.187M18.507 29.175L51.654 9.911" fill="none" stroke="#83838a" stroke-width=".266464"></path><path d="M23.679 32.17l2.586 6.688L59.498 19.67l-2.652-6.762z" fill="#b8b8bb" fill-rule="evenodd" stroke="#83838a" stroke-width=".26446552"></path><path d="M2647.212-1556.832l-31.177 18-31.177-18v-36l31.177-18 31.177 18z" fill="#d2d2d4" stroke="#83838a" stroke-width="1.711" transform="matrix(0 -.16643 -.14368 -.08322 -205.171 340.204)"></path><path d="M15.92 22.488L49.154 3.301M10.748 19.492L43.981.306M2.843 20.104L36.076.918" fill="none" stroke="#83838a" stroke-width=".266464"></path><path d="M26.265 38.858l-2.586 3.69 33.232-19.186 2.587-3.691z" fill="#9d9da3" fill-rule="evenodd" stroke="#83838a" stroke-width=".26446552"></path><path d="M18.507 29.175l5.172 2.996 33.167-19.262-5.192-2.998z" fill="#ececed" fill-rule="evenodd" stroke="#83838a" stroke-width=".26446552"></path><path d="M15.92 22.488l2.544 6.649L51.654 9.91l-2.5-6.61z" fill="#b8b8bb" fill-rule="evenodd" stroke="#83838a" stroke-width=".26446552"></path><path d="M21.74 11.664l-.923.533-.461-.266.923-.533zm1.615-.133l-1.846 1.066-.46-.267 1.845-1.065zm-.23 2.265l-.231.133-3.692-2.131 2.769-1.599.23.133-2.537 1.466 3.46 1.998zm.46-1.599l-1.383.8-.462-.267 1.385-.8zm1.385 0l-2.076 1.199-.462-.266 2.077-1.2z" fill="#4286c5"></path><path d="M10.748 19.492l5.173 2.996L49.153 3.301 43.981.306z" fill="#ececed" fill-rule="evenodd" stroke="#83838a" stroke-width=".26446552"></path><path d="M2647.212-1556.832l-31.177 18-31.177-18v-36l31.177-18 31.177 18z" fill="#5b5b62" stroke="#000000" stroke-width="2.402" transform="matrix(0 -.11854 -.10233 -.05927 -147.814 242.937)"></path><path d="M.298 23.822l2.586-3.69L36.116.943l3.374 1.954L43.98.306 49.154 3.3l2.5 6.61 5.193 2.998 2.652 6.762-2.587 3.69L23.68 42.55l-5.172-2.996-2.586-6.687-5.279-3.052-2.586 3.69-5.172-2.995z" fill="none" stroke="#000000" stroke-width=".52926412"></path><path d="M2647.212-1556.832l-31.177 18-31.177-18v-36l31.177-18 31.177 18z" fill="#5b5b62" stroke="#000000" stroke-width="2.402" transform="matrix(0 -.11854 -.10233 -.05927 -140.056 252.62)"></path><path d="M2647.212-1556.832l-31.177 18-31.177-18v-36l31.177-18 31.177 18z" fill="#5b5b62" stroke="#000000" stroke-width="2.402" transform="matrix(0 -.11854 -.10233 -.05927 -155.679 243.575)"></path><path d="M29.086 11.02l-.923.532-.461-.266.923-.533zm1.615-.134l-1.846 1.066-.461-.267 1.846-1.065zm-.23 2.265l-.232.133-3.691-2.131 2.769-1.599.23.133-2.538 1.466 3.461 1.998zm.46-1.599l-1.384.8-.461-.267 1.384-.8zm1.385 0l-2.076 1.199-.462-.266 2.077-1.2zM36.984 20.375l-.923.533-.461-.267.923-.532zm1.615-.133l-1.846 1.065-.46-.266 1.845-1.066zm-.23 2.264l-.231.134-3.692-2.132 2.769-1.598.23.133-2.537 1.465 3.46 1.998zm.461-1.598l-1.384.8-.462-.267 1.385-.8zm1.384 0l-2.076 1.199-.462-.267 2.077-1.199z" fill="#4286c5"></path></svg></g></g><g opacity="1"><g id="9a6181ad-ecf9-4dfd-99c8-08c014ef1591" transform="translate(0 0)"><svg x="-227" y="426" height="125.699" width="167" viewBox="0 0 44.185 33.258"><path d="M7.993 22.497L41.235 3.305M10.645 29.26l33.242-19.192M8.058 32.952L41.3 13.76" fill="none" stroke="#83838a" stroke-width=".26653600000000005"></path><path d="M8.058 22.572l2.587 6.688 33.242-19.192-2.652-6.763z" fill="#b8b8bb" fill-rule="evenodd" stroke="#83838a" stroke-width=".26453698000000003"></path><path d="M2647.212-1556.832l-31.177 18-31.177-18v-36l31.177-18 31.177 18z" fill="#d2d2d4" stroke="#83838a" stroke-width="1.711" transform="matrix(0 -.16648 -.14372 -.08324 -220.857 330.693)"></path><path d="M10.645 29.26l-2.587 3.692L41.3 13.76l2.587-3.692z" fill="#9d9da3" fill-rule="evenodd" stroke="#83838a" stroke-width=".26453698000000003"></path><path d="M2.885 19.575l5.173 2.997L41.235 3.305l-5.194-3z" fill="#ececed" fill-rule="evenodd" stroke="#83838a" stroke-width=".26453698000000003"></path><path d="M2647.212-1556.832l-31.177 18-31.177-18v-36l31.177-18 31.177 18z" fill="#5b5b62" stroke="#000000" stroke-width="2.402" transform="matrix(0 -.11857 -.10236 -.05928 -155.723 243.083)"></path><path d="M21.367 10.772l-.923.533-.461-.266.923-.533zm1.616-.133l-1.846 1.066-.462-.266 1.846-1.066zm-.23 2.265l-.232.134-3.692-2.132 2.77-1.6.23.134-2.539 1.466 3.462 1.998zm.46-1.599l-1.384.8-.462-.267 1.385-.799zm1.385 0l-2.077 1.2-.461-.267 2.077-1.2z" fill="#4286c5"></path><path d="M.298 23.267l2.587-3.692L36.04.305l5.194 3 2.652 6.763L41.3 13.76 8.058 32.952l-5.173-2.996z" fill="none" stroke="#000000" stroke-width=".5290739600000001"></path></svg></g></g><g opacity="1"><g id="d9dbc772-4342-4e0a-a89f-a5feccf472e9" transform="translate(0 0)"><svg x="-3" y="556" height="125.699" width="167" viewBox="0 0 44.185 33.258"><path d="M7.993 22.497L41.235 3.305M10.645 29.26l33.242-19.192M8.058 32.952L41.3 13.76" fill="none" stroke="#83838a" stroke-width=".26653600000000005"></path><path d="M8.058 22.572l2.587 6.688 33.242-19.192-2.652-6.763z" fill="#b8b8bb" fill-rule="evenodd" stroke="#83838a" stroke-width=".26453698000000003"></path><path d="M2647.212-1556.832l-31.177 18-31.177-18v-36l31.177-18 31.177 18z" fill="#d2d2d4" stroke="#83838a" stroke-width="1.711" transform="matrix(0 -.16648 -.14372 -.08324 -220.857 330.693)"></path><path d="M10.645 29.26l-2.587 3.692L41.3 13.76l2.587-3.692z" fill="#9d9da3" fill-rule="evenodd" stroke="#83838a" stroke-width=".26453698000000003"></path><path d="M2.885 19.575l5.173 2.997L41.235 3.305l-5.194-3z" fill="#ececed" fill-rule="evenodd" stroke="#83838a" stroke-width=".26453698000000003"></path><path d="M2647.212-1556.832l-31.177 18-31.177-18v-36l31.177-18 31.177 18z" fill="#5b5b62" stroke="#000000" stroke-width="2.402" transform="matrix(0 -.11857 -.10236 -.05928 -155.723 243.083)"></path><path d="M21.367 10.772l-.923.533-.461-.266.923-.533zm1.616-.133l-1.846 1.066-.462-.266 1.846-1.066zm-.23 2.265l-.232.134-3.692-2.132 2.77-1.6.23.134-2.539 1.466 3.462 1.998zm.46-1.599l-1.384.8-.462-.267 1.385-.799zm1.385 0l-2.077 1.2-.461-.267 2.077-1.2z" fill="#4286c5"></path><path d="M.298 23.267l2.587-3.692L36.04.305l5.194 3 2.652 6.763L41.3 13.76 8.058 32.952l-5.173-2.996z" fill="none" stroke="#000000" stroke-width=".5290739600000001"></path></svg></g></g><g opacity="1"><g id="df4c1281-9137-47d6-9792-b6b6efdfe059" transform="translate(0 0)"><svg x="-608" y="367" height="113.438" width="96" viewBox="0 0 25.4 30.014"><g transform="translate(412.599 -86.957)"><path d="M-412.333 102.348v4.786l8.29 4.785h8.289l8.29-4.785v-4.786l-8.29-4.786h-8.29z" fill="#3c3c3c" fill-rule="evenodd"></path><path d="M-395.754 111.92l8.29-4.786v4.785l-8.29 4.786z" fill="#b1b4b7" fill-rule="evenodd"></path><path d="M-404.044 111.92h8.29v4.785h-8.29z" fill="#cbced0" fill-rule="evenodd"></path><path d="M-412.333 107.134v4.785l8.29 4.786v-4.786z" fill="#cbced0" fill-rule="evenodd"></path><path d="M-412.333 107.134l8.29 4.785h8.289l8.29-4.785M-404.044 111.92v4.785M-395.754 111.92v4.785" fill="none" stroke="#7c8186" stroke-width=".26588"></path><path d="M-412.333 102.348v9.571l8.29 4.786h8.289l8.29-4.786v-9.571l-8.29-4.786h-8.29z" fill="none" stroke="#000000" stroke-width=".53176"></path><path d="M-412.333 97.178v4.786l8.29 4.786h8.289l8.29-4.786v-4.786l-8.29-4.786h-8.29z" fill="#3c3c3c" fill-rule="evenodd"></path><path d="M-395.754 106.75l8.29-4.786v4.786l-8.29 4.786z" fill="#b1b4b7" fill-rule="evenodd"></path><path d="M-404.044 106.75h8.29v4.786h-8.29z" fill="#cbced0" fill-rule="evenodd"></path><path d="M-412.333 101.964v4.786l8.29 4.786v-4.786z" fill="#cbced0" fill-rule="evenodd"></path><path d="M-412.333 101.964l8.29 4.786h8.289l8.29-4.786M-404.044 106.75v4.786M-395.754 106.75v4.786" fill="none" stroke="#7c8186" stroke-width=".266"></path><path d="M-412.333 97.178v9.572l8.29 4.786h8.289l8.29-4.786v-9.572l-8.29-4.786h-8.29z" fill="none" stroke="#000000" stroke-width=".532"></path><path d="M-412.333 92.01v4.785l8.29 4.786h8.289l8.29-4.786v-4.786l-8.29-4.786h-8.29z" fill="#e6e7e8" fill-rule="evenodd"></path><path d="M-395.754 101.58l8.29-4.785v4.786l-8.29 4.786z" fill="#b1b4b7" fill-rule="evenodd"></path><path d="M-404.044 101.58h8.29v4.787h-8.29z" fill="#cbced0" fill-rule="evenodd"></path><path d="M-412.333 96.795v4.786l8.29 4.786v-4.786z" fill="#cbced0" fill-rule="evenodd"></path><path d="M-412.333 96.795l8.29 4.786h8.289l8.29-4.786M-404.044 101.58v4.787M-395.754 101.58v4.787" fill="none" stroke="#7c8186" stroke-width=".266"></path><path d="M-412.333 92.01v9.57l8.29 4.787h8.289l8.29-4.786v-9.572l-8.29-4.786h-8.29z" fill="none" stroke="#000000" stroke-width=".532"></path><circle cx="-136.478" cy="325.284" fill="#f4b934" r="5.801" transform="scale(1.22475 .7071) rotate(45)"></circle><g font-family="sans-serif" font-size="3.191" stroke-width=".266" style="line-height: 0%;"><path d="M-399.242 93.57l.48-.601q.222-.275.177-.448-.04-.17-.467-.416l-.507-.293 1.065-.614.937.541q.825.476.92.934.1.46-.417 1.114l-3.452 4.39-1.622-.937 1.654-2.121-3.729.923-1.622-.936z" fill="#ffffff" font-family="Droid Serif" font-size="9.971" style="line-height: 1.25;"></path></g></g></svg></g></g><g opacity="1"><g id="52d60fe9-8151-4a67-8e4b-eba7b62b15d3" transform="translate(0 0)"><svg x="-128" y="645" height="113.438" width="96" viewBox="0 0 25.4 30.014"><g transform="translate(412.599 -86.957)"><path d="M-412.333 102.348v4.786l8.29 4.785h8.289l8.29-4.785v-4.786l-8.29-4.786h-8.29z" fill="#3c3c3c" fill-rule="evenodd"></path><path d="M-395.754 111.92l8.29-4.786v4.785l-8.29 4.786z" fill="#b1b4b7" fill-rule="evenodd"></path><path d="M-404.044 111.92h8.29v4.785h-8.29z" fill="#cbced0" fill-rule="evenodd"></path><path d="M-412.333 107.134v4.785l8.29 4.786v-4.786z" fill="#cbced0" fill-rule="evenodd"></path><path d="M-412.333 107.134l8.29 4.785h8.289l8.29-4.785M-404.044 111.92v4.785M-395.754 111.92v4.785" fill="none" stroke="#7c8186" stroke-width=".26588"></path><path d="M-412.333 102.348v9.571l8.29 4.786h8.289l8.29-4.786v-9.571l-8.29-4.786h-8.29z" fill="none" stroke="#000000" stroke-width=".53176"></path><path d="M-412.333 97.178v4.786l8.29 4.786h8.289l8.29-4.786v-4.786l-8.29-4.786h-8.29z" fill="#3c3c3c" fill-rule="evenodd"></path><path d="M-395.754 106.75l8.29-4.786v4.786l-8.29 4.786z" fill="#b1b4b7" fill-rule="evenodd"></path><path d="M-404.044 106.75h8.29v4.786h-8.29z" fill="#cbced0" fill-rule="evenodd"></path><path d="M-412.333 101.964v4.786l8.29 4.786v-4.786z" fill="#cbced0" fill-rule="evenodd"></path><path d="M-412.333 101.964l8.29 4.786h8.289l8.29-4.786M-404.044 106.75v4.786M-395.754 106.75v4.786" fill="none" stroke="#7c8186" stroke-width=".266"></path><path d="M-412.333 97.178v9.572l8.29 4.786h8.289l8.29-4.786v-9.572l-8.29-4.786h-8.29z" fill="none" stroke="#000000" stroke-width=".532"></path><path d="M-412.333 92.01v4.785l8.29 4.786h8.289l8.29-4.786v-4.786l-8.29-4.786h-8.29z" fill="#e6e7e8" fill-rule="evenodd"></path><path d="M-395.754 101.58l8.29-4.785v4.786l-8.29 4.786z" fill="#b1b4b7" fill-rule="evenodd"></path><path d="M-404.044 101.58h8.29v4.787h-8.29z" fill="#cbced0" fill-rule="evenodd"></path><path d="M-412.333 96.795v4.786l8.29 4.786v-4.786z" fill="#cbced0" fill-rule="evenodd"></path><path d="M-412.333 96.795l8.29 4.786h8.289l8.29-4.786M-404.044 101.58v4.787M-395.754 101.58v4.787" fill="none" stroke="#7c8186" stroke-width=".266"></path><path d="M-412.333 92.01v9.57l8.29 4.787h8.289l8.29-4.786v-9.572l-8.29-4.786h-8.29z" fill="none" stroke="#000000" stroke-width=".532"></path><circle cx="-136.478" cy="325.284" fill="#f4b934" r="5.801" transform="scale(1.22475 .7071) rotate(45)"></circle><g font-family="sans-serif" font-size="3.191" stroke-width=".266" style="line-height: 0%;"><path d="M-399.242 93.57l.48-.601q.222-.275.177-.448-.04-.17-.467-.416l-.507-.293 1.065-.614.937.541q.825.476.92.934.1.46-.417 1.114l-3.452 4.39-1.622-.937 1.654-2.121-3.729.923-1.622-.936z" fill="#ffffff" font-family="Droid Serif" font-size="9.971" style="line-height: 1.25;"></path></g></g></svg></g></g><g opacity="1"><g id="55684cc9-fa40-4144-9e03-8e0915f739cb" transform="translate(0 0)"><svg x="-851" y="490" height="115.695" width="100.625" viewBox="0 0 26.624 30.611"><path d="M13.312.306v15l12.99-7.5z" fill="#4286c5" fill-rule="evenodd"></path><path d="M.322 7.806l12.99 7.5v-15z" fill="#26527b" fill-rule="evenodd"></path><path d="M13.312.306v15" fill="none" stroke="#b7d1e9" stroke-width=".265"></path><path d="M13.312 15.306l12.99-7.5-6.495 18.75-6.495 3.75z" fill="#26527b" fill-rule="evenodd"></path><path d="M.322 7.806l12.99 7.5v15l-6.495-3.75z" fill="#326ca2" fill-rule="evenodd"></path><path d="M.322 7.806l12.99 7.5 12.99-7.5-12.99 7.5v15" fill="none" stroke="#deeaf5" stroke-width=".265"></path><path d="M13.312.306l-12.99 7.5 6.495 18.75 6.495 3.75 6.495-3.75 6.495-18.75z" fill="none" stroke="#000000" stroke-width=".529"></path></svg></g></g><g opacity="1"><g id="65675d32-4dda-404b-9bc4-be8e66775c38" transform="translate(0 0)"><g><polygon points="-320 777, -256 814, -320 851, -384 814" fill="#8bc34a"></polygon><polygon points="-384 888, -320 925, -320 851, -384 814" fill="#71a436" stroke="#edf6e3"></polygon><polygon points="-320 925, -256 888, -256 814, -320 851" fill="#577d2a" stroke="#edf6e3"></polygon><polygon points="-320 777, -384 814, -384 888, -320 925, -256 888, -256 814" fill="none" stroke="#000000" stroke-width="2"></polygon></g></g></g></g><g pointer-events="auto"></g><g pointer-events="auto"><g opacity="1"><g id="1625bbd6-8720-4e93-a16c-eda13280db2c" transform="translate(0 0)"><svg x="-640" y="500" overflow="visible"><g transform=" "><circle cx="0" cy="0" fill="rgba(0, 0, 0, 0)" r="40"></circle><svg width="100" height="100" x="-50" y="-50" style="fill: rgb(255, 255, 255);"><svg data-name="Layer 1" xmlns="http://www.w3.org/2000/svg" width="100" height="100" viewBox="0 0 100 100"><g><path fill="#4b612c" d="M27.7 50.04h10.71v26.44H27.7zM44.62 55.19h10.71v21.29H44.62zM74.2 80.67v5.66H25.75v-5.66zM61.54 46.86v29.62h10.71V46.86a11.2 11.2 0 0 1-10.71 0z"></path><path fill="#759c3e" d="M27.7 47.56h10.71V74H27.7zM44.62 52.71h10.71V74H44.62zM74.2 78.19v5.66H25.75v-5.66zM61.54 41.67h10.71v32.34H61.54z"></path><rect x="55.76" y="16.56" width="22.28" height="22.28" rx="3" ry="3" fill="#4b612c"></rect><rect x="55.76" y="14.04" width="22.28" height="22.28" rx="3" ry="3" fill="#759c3e"></rect></g></svg></svg></g></svg></g></g><g opacity="1"><g id="955e1bd9-7c5a-4a2c-bc83-cb045da8028b" transform="translate(0 0)"><svg x="-400" y="638" overflow="visible"><g transform=" "><circle cx="0" cy="0" fill="rgba(0, 0, 0, 0)" r="40"></circle><svg width="100" height="100" x="-50" y="-50" style="fill: rgb(255, 255, 255);"><svg data-name="Layer 1" xmlns="http://www.w3.org/2000/svg" width="100" height="100" viewBox="0 0 100 100"><g><path fill="#4b612c" d="M27.7 50.04h10.71v26.44H27.7zM44.62 55.19h10.71v21.29H44.62zM74.2 80.67v5.66H25.75v-5.66zM61.54 46.86v29.62h10.71V46.86a11.2 11.2 0 0 1-10.71 0z"></path><path fill="#759c3e" d="M27.7 47.56h10.71V74H27.7zM44.62 52.71h10.71V74H44.62zM74.2 78.19v5.66H25.75v-5.66zM61.54 41.67h10.71v32.34H61.54z"></path><rect x="55.76" y="16.56" width="22.28" height="22.28" rx="3" ry="3" fill="#4b612c"></rect><rect x="55.76" y="14.04" width="22.28" height="22.28" rx="3" ry="3" fill="#759c3e"></rect></g></svg></svg></g></svg></g></g><g opacity="1"><g id="656c159d-b156-447b-ab5f-a0c6321188ce" transform="translate(0 0)"><svg x="-688" y="657" overflow="visible"><g transform=" "><circle cx="0" cy="0" fill="rgba(0, 0, 0, 0)" r="40"></circle><svg width="100" height="100" x="-50" y="-50" style="fill: rgb(255, 255, 255);"><svg data-name="Layer 1" xmlns="http://www.w3.org/2000/svg" width="100" height="100" viewBox="0 0 100 100"><g><path fill="#3c4929" d="M25.71 45.38l-2.22.18-7.45-.3 2.06-10.29 7.61 10.41z"></path><path fill="#b7ca9d" d="M25.71 54.95l-2.22-.18-7.45.3 2.06 10.29 7.61-10.41z"></path><path fill="#4b612c" d="M18.1 55.27l-2.06-.2v9.67l2.06.62V55.27z"></path><path fill="#759c3e" d="M25.71 64.37l-7.61.99V55.28l7.61-.33v9.42z"></path><path fill="#b7ca9d" d="M39.66 55.74l-6.12-.47-10.7.54 5.73 18.41 11.09-18.48z"></path><path fill="#4b612c" d="M18.1 45.05l-2.06.21v-9.67l2.06-.62v10.08z"></path><path fill="#759c3e" d="M25.71 35.96l-7.61-.99v10.07l7.61.34v-9.42z"></path><path fill="#3c4929" d="M39.66 44.59l-6.12.46-10.7-.53 5.73-18.38 11.09 18.45z"></path><path fill="#4b612c" d="M22.84 28.09l5.73-1.95v17.8l-5.73.58V28.09z"></path><path fill="#759c3e" d="M39.66 28.55l-11.09-2.41v17.8l11.09.65V28.55z"></path><path fill="#4b612c" d="M22.84 72.1l5.73 2.12V56.39l-5.73-.58V72.1z"></path><path fill="#759c3e" d="M39.66 71.93l-11.09 2.29V56.39l11.09-.65v16.19z"></path><path fill="#4b612c" d="M35.64 83.82L49.99 91l33.63-41L49.99 9l-14.35 7.18v67.64z"></path><path fill="#759c3e" d="M83.96 74.02L49.99 91V9l33.97 16.98v48.04z"></path></g></svg></svg></g></svg></g></g><g opacity="1"><g id="385ce28b-1e16-4a62-81e3-7b3059f105f7" transform="translate(0 0)"><svg x="-160" y="777" overflow="visible"><g transform=" "><circle cx="0" cy="0" fill="rgba(0, 0, 0, 0)" r="40"></circle><svg width="100" height="100" x="-50" y="-50" style="fill: rgb(255, 255, 255);"><svg data-name="Layer 1" xmlns="http://www.w3.org/2000/svg" width="100" height="100" viewBox="0 0 100 100"><g><g fill="#4b612c"><circle cx="66.9" cy="30.64" r="13"></circle><path d="M66.9 45.14a14.5 14.5 0 1 1 14.5-14.5 14.52 14.52 0 0 1-14.5 14.5zm0-26a11.5 11.5 0 1 0 11.5 11.5 11.51 11.51 0 0 0-11.5-11.5z"></path></g><g><circle cx="66.9" cy="28.16" r="13" fill="#fff"></circle><path d="M66.9 42.66a14.5 14.5 0 1 1 14.5-14.5 14.52 14.52 0 0 1-14.5 14.5zm0-26a11.5 11.5 0 1 0 11.5 11.5 11.51 11.51 0 0 0-11.5-11.5z" fill="#4f4f4f"></path></g><path fill="#4f4f4f" d="M60.88 27.66h7.01v3h-7.01z"></path><path fill="#4f4f4f" d="M66.4 19.1h3v11.56h-3z"></path><path fill="#4b612c" d="M27.7 50.04h10.71v26.44H27.7zM44.62 55.19h10.71v21.29H44.62zM74.2 80.67v5.66H25.75v-5.66zM61.54 46.86v29.62h10.71V46.86a11.2 11.2 0 0 1-10.71 0z"></path><path fill="#759c3e" d="M27.7 47.56h10.71V74H27.7zM44.62 52.71h10.71V74H44.62zM74.2 78.19v5.66H25.75v-5.66zM61.54 44.38V74h10.71V44.38a11.2 11.2 0 0 1-10.71 0z"></path></g></svg></svg></g></svg></g></g></g><g pointer-events="auto"><g opacity="1"><g id="940e29f6-1e8e-44b1-ba69-6d07db5bedcb"><svg x="-336" y="361" overflow="visible"><text stroke="#ffffff" stroke-width="4" font-family="Open Sans" y="26.24" font-size="16pt" fill="#3f51b5" font-weight="bold" transform="matrix(0.707 0.409 -0.707 0.409 0 0)" xml:space="preserve"><tspan x="8" dy="0">Stream (Cloudtrail)</tspan></text><text font-family="Open Sans" y="26.24" font-size="16pt" fill="#3f51b5" font-weight="bold" transform="matrix(0.707 0.409 -0.707 0.409 0 0)" xml:space="preserve"><tspan x="8" dy="0">Stream (Cloudtrail)</tspan></text></svg></g></g><g opacity="1"><g id="a2a1ac2e-fc9c-4a25-be5d-dac59d6f93eb"><svg x="-80" y="490" overflow="visible"><text stroke="#ffffff" stroke-width="4" font-family="Open Sans" y="23.96" font-size="14pt" fill="#3f51b5" font-weight="bold" transform="matrix(0.707 0.409 -0.707 0.409 0 0)" xml:space="preserve"><tspan x="8" dy="0">Stream (GuardDuty)</tspan><tspan x="8" dy="1.1em"> </tspan></text><text font-family="Open Sans" y="23.96" font-size="14pt" fill="#3f51b5" font-weight="bold" transform="matrix(0.707 0.409 -0.707 0.409 0 0)" xml:space="preserve"><tspan x="8" dy="0">Stream (GuardDuty)</tspan><tspan x="8" dy="1.1em"> </tspan></text></svg></g></g><g opacity="1"><g id="ba781ca7-7737-4897-a61b-1507b04bd2c8"><svg x="512" y="370" overflow="visible"><text stroke="#ffffff" stroke-width="4" font-family="Open Sans" y="30.799999999999997" font-size="20pt" fill="#3f51b5" font-weight="bold" transform="matrix(0.707 0.409 -0.707 0.409 0 0)" xml:space="preserve"><tspan x="8" dy="0">Event Sharing</tspan><tspan x="8" dy="1.1em">Topic</tspan></text><text font-family="Open Sans" y="30.799999999999997" font-size="20pt" fill="#3f51b5" font-weight="bold" transform="matrix(0.707 0.409 -0.707 0.409 0 0)" xml:space="preserve"><tspan x="8" dy="0">Event Sharing</tspan><tspan x="8" dy="1.1em">Topic</tspan></text></svg></g></g><g opacity="1"><g id="4e31b3f6-a87a-4938-9aff-0483e7a17d78"><svg x="176" y="342" overflow="visible"><text stroke="#ffffff" stroke-width="4" font-family="Open Sans" y="36.5" font-size="25pt" fill="#3f51b5" font-weight="bold" transform="matrix(0.707 0.409 -0.707 0.409 0 0)" xml:space="preserve"><tspan x="8" dy="0">Elasticsearch</tspan></text><text font-family="Open Sans" y="36.5" font-size="25pt" fill="#3f51b5" font-weight="bold" transform="matrix(0.707 0.409 -0.707 0.409 0 0)" xml:space="preserve"><tspan x="8" dy="0">Elasticsearch</tspan></text></svg></g></g><g opacity="1"><g id="5101c6ee-09b0-4850-8c8a-c148f3494142"><svg x="-352" y="666" overflow="visible"><text stroke="#ffffff" stroke-width="4" font-family="Open Sans" y="30.799999999999997" font-size="20pt" fill="#3f51b5" font-weight="bold" transform="matrix(0.707 0.409 -0.707 0.409 0 0)" xml:space="preserve"><tspan x="8" dy="0">NewFinding</tspan></text><text font-family="Open Sans" y="30.799999999999997" font-size="20pt" fill="#3f51b5" font-weight="bold" transform="matrix(0.707 0.409 -0.707 0.409 0 0)" xml:space="preserve"><tspan x="8" dy="0">NewFinding</tspan></text></svg></g></g><g opacity="1"><g id="e6815a45-3b4f-4735-8d47-02d5c16f5461"><svg x="-587" y="530" overflow="visible"><text stroke="#ffffff" stroke-width="4" font-family="Open Sans" y="30.799999999999997" font-size="20pt" fill="#3f51b5" font-weight="bold" transform="matrix(0.707 0.409 -0.707 0.409 0 0)" xml:space="preserve"><tspan x="8" dy="0">PutObject</tspan></text><text font-family="Open Sans" y="30.799999999999997" font-size="20pt" fill="#3f51b5" font-weight="bold" transform="matrix(0.707 0.409 -0.707 0.409 0 0)" xml:space="preserve"><tspan x="8" dy="0">PutObject</tspan></text></svg></g></g><g opacity="1"><g id="8eaabd4e-dfe8-4818-b099-29ed62bacc1e"><svg x="-656" y="638" overflow="visible"><text stroke="#ffffff" stroke-width="4" font-family="Open Sans" y="26.24" font-size="16pt" fill="#3f51b5" font-weight="bold" transform="matrix(0.707, 0.409, 0, 0.816, 0, 0)" xml:space="preserve"><tspan x="8" dy="0">Cloudtrail  Events</tspan></text><text font-family="Open Sans" y="26.24" font-size="16pt" fill="#3f51b5" font-weight="bold" transform="matrix(0.707, 0.409, 0, 0.816, 0, 0)" xml:space="preserve"><tspan x="8" dy="0">Cloudtrail  Events</tspan></text></svg></g></g><g opacity="1"><g id="f18cb8ee-bbf1-49aa-8580-e45046ef4241"><svg x="-912" y="453" overflow="visible"><text stroke="#ffffff" stroke-width="4" font-family="Open Sans" y="26.24" font-size="16pt" fill="#3f51b5" font-weight="bold" transform="matrix(0.707, 0.409, 0, 0.816, 0, 0)" xml:space="preserve"><tspan x="8" dy="0">Cloudtrail Logs Bucket</tspan></text><text font-family="Open Sans" y="26.24" font-size="16pt" fill="#3f51b5" font-weight="bold" transform="matrix(0.707, 0.409, 0, 0.816, 0, 0)" xml:space="preserve"><tspan x="8" dy="0">Cloudtrail Logs Bucket</tspan></text></svg></g></g><g opacity="1"><g id="187e2227-0ab0-4ae7-95a4-f5c5a65ae399"><svg x="-576" y="130" overflow="visible"><text stroke="#ffffff" stroke-width="4" font-family="Open Sans" y="26.24" font-size="16pt" fill="#3f51b5" font-weight="bold" transform="matrix(0.707, 0.409, 0, 0.816, 0, 0)" xml:space="preserve"><tspan x="8" dy="0">Log Retention Bucket</tspan></text><text font-family="Open Sans" y="26.24" font-size="16pt" fill="#3f51b5" font-weight="bold" transform="matrix(0.707, 0.409, 0, 0.816, 0, 0)" xml:space="preserve"><tspan x="8" dy="0">Log Retention Bucket</tspan></text></svg></g></g><g opacity="1"><g id="cfcfd94c-95dd-42d1-aef7-ad3c76043b89"><svg x="-108" y="807" overflow="visible"><text stroke="#ffffff" stroke-width="4" font-family="Open Sans" y="30.799999999999997" font-size="20pt" fill="#3f51b5" font-weight="bold" transform="matrix(0.707 0.409 -0.707 0.409 0 0)" xml:space="preserve"><tspan x="8" dy="0">Hourly</tspan></text><text font-family="Open Sans" y="30.799999999999997" font-size="20pt" fill="#3f51b5" font-weight="bold" transform="matrix(0.707 0.409 -0.707 0.409 0 0)" xml:space="preserve"><tspan x="8" dy="0">Hourly</tspan></text></svg></g></g><g opacity="1"><g id="0acf737a-39e8-4a41-bb5c-d5f4c6630b09"><svg x="-512" y="463" overflow="visible"><text stroke="#ffffff" stroke-width="4" font-family="Open Sans" y="23.96" font-size="14pt" fill="#3f51b5" font-weight="bold" transform="matrix(0.707 0.409 -0.707 0.409 0 0)" xml:space="preserve"><tspan x="8" dy="0">Log Processing Lambda</tspan></text><text font-family="Open Sans" y="23.96" font-size="14pt" fill="#3f51b5" font-weight="bold" transform="matrix(0.707 0.409 -0.707 0.409 0 0)" xml:space="preserve"><tspan x="8" dy="0">Log Processing Lambda</tspan></text></svg></g></g><g opacity="1"><g id="e468635d-2fc9-49c8-8c3b-363356b291cb"><svg x="-48" y="731" overflow="visible"><text stroke="#ffffff" stroke-width="4" font-family="Open Sans" y="23.96" font-size="14pt" fill="#3f51b5" font-weight="bold" transform="matrix(0.707 0.409 -0.707 0.409 0 0)" xml:space="preserve"><tspan x="8" dy="0">Log Processing Lambda</tspan></text><text font-family="Open Sans" y="23.96" font-size="14pt" fill="#3f51b5" font-weight="bold" transform="matrix(0.707 0.409 -0.707 0.409 0 0)" xml:space="preserve"><tspan x="8" dy="0">Log Processing Lambda</tspan></text></svg></g></g><g opacity="1"><g id="03c4a388-bb97-47d7-b8c4-a63d8b6b4559"><svg x="144" y="620" overflow="visible"><text stroke="#ffffff" stroke-width="4" font-family="Open Sans" y="23.96" font-size="14pt" fill="#3f51b5" font-weight="bold" transform="matrix(0.707 0.409 -0.707 0.409 0 0)" xml:space="preserve"><tspan x="8" dy="0">Stream (External Logs)</tspan></text><text font-family="Open Sans" y="23.96" font-size="14pt" fill="#3f51b5" font-weight="bold" transform="matrix(0.707 0.409 -0.707 0.409 0 0)" xml:space="preserve"><tspan x="8" dy="0">Stream (External Logs)</tspan></text></svg></g></g><g opacity="1"><g id="797cb135-bc5d-4592-84d9-7511ec9e5ef8"><svg x="-400" y="786" overflow="visible"><text stroke="#ffffff" stroke-width="4" font-family="Open Sans" y="26.24" font-size="16pt" fill="#3f51b5" font-weight="bold" transform="matrix(0.707, 0.409, 0, 0.816, 0, 0)" xml:space="preserve"><tspan x="8" dy="0">External API</tspan></text><text font-family="Open Sans" y="26.24" font-size="16pt" fill="#3f51b5" font-weight="bold" transform="matrix(0.707, 0.409, 0, 0.816, 0, 0)" xml:space="preserve"><tspan x="8" dy="0">External API</tspan></text></svg></g></g><g opacity="1"><g id="72c1a1e7-c5f3-4027-b860-9a3518ad7c6e"><svg x="192" y="167" overflow="visible"><text stroke="#ffffff" stroke-width="4" font-family="Open Sans" y="30.799999999999997" font-size="20pt" fill="#3f51b5" font-weight="bold" transform="matrix(0.707 0.409 -0.707 0.409 0 0)" xml:space="preserve"><tspan x="8" dy="0">Slack Webhook</tspan></text><text font-family="Open Sans" y="30.799999999999997" font-size="20pt" fill="#3f51b5" font-weight="bold" transform="matrix(0.707 0.409 -0.707 0.409 0 0)" xml:space="preserve"><tspan x="8" dy="0">Slack Webhook</tspan></text></svg></g></g></g><g></g></g></svg>